<svg xmlns="http://www.w3.org/2000/svg" width="30.411" height="30.44" viewBox="0 0 30.411 30.44">
  <g id="Group_5" data-name="Group 5" transform="translate(0 -3)">
    <path id="comment_3_" data-name="comment (3)" d="M24.946,3.5a15.218,15.218,0,1,0-9.71,26.938H24.09A6.348,6.348,0,0,0,30.431,24.1V14.263A15.274,15.274,0,0,0,24.946,3.5ZM10.14,8.878h5.073a1.268,1.268,0,0,1,0,2.536H10.14a1.268,1.268,0,0,1,0-2.536ZM20.285,21.56H10.14a1.268,1.268,0,0,1,0-2.536H20.285a1.268,1.268,0,0,1,0,2.536Zm0-5.073H10.14a1.268,1.268,0,1,1,0-2.536H20.285a1.268,1.268,0,1,1,0,2.536Z" transform="translate(-0.02 3.003)" fill="#434343"/>
  </g>
</svg>
