<svg xmlns="http://www.w3.org/2000/svg" width="170.234" height="60.234" viewBox="0 0 170.234 60.234">
  <g id="Group_39" data-name="Group 39" transform="translate(-162.766 -33.266)">
    <text id="Community" transform="translate(237 88.5)" font-size="18" font-family="GTWalsheimPro-Regular, GT Walsheim Pro"><tspan x="0" y="0">Community</tspan></text>
    <g id="davtonlogo" transform="translate(162.766 33.266)">
      <circle id="Ellipse_2" data-name="Ellipse 2" cx="24.266" cy="24.266" r="24.266" transform="translate(1.234 1.234)" fill="none" stroke="#20a354" stroke-width="2.468"/>
      <path id="Path_10" data-name="Path 10" d="M23.1,13.79a15.11,15.11,0,0,1,6.892,1.455,10.157,10.157,0,0,1,4.4,4.191,13.18,13.18,0,0,1,1.524,6.511,13.106,13.106,0,0,1-1.524,6.477,10.213,10.213,0,0,1-4.4,4.156A15.421,15.421,0,0,1,23.1,38h-7.17V13.79Zm0,22.2q5.057,0,7.689-2.632a10.018,10.018,0,0,0,2.667-7.412A10.066,10.066,0,0,0,30.791,18.5q-2.632-2.7-7.689-2.7H18.357V35.991Z" fill="#20a354"/>
      <path id="Path_11" data-name="Path 11" d="M29.994,15.245l-.977,1.932h0Zm4.4,4.191,1.891-1.053h0Zm0,12.988,1.885,1.063.006-.01Zm-4.4,4.156.959,1.941.009,0,.009,0ZM15.932,38H13.768v2.165h2.165Zm0-24.21V11.625H13.768V13.79ZM30.791,33.359,29.26,31.828h0Zm0-14.858-1.55,1.511.01.01.01.01ZM18.357,15.8V13.634H16.192V15.8Zm0,20.192H16.192v2.165h2.165ZM23.1,15.955a12.968,12.968,0,0,1,5.915,1.222l1.955-3.863a17.257,17.257,0,0,0-7.87-1.688Zm5.915,1.222A7.993,7.993,0,0,1,32.5,20.489l3.782-2.106a12.32,12.32,0,0,0-5.312-5.069ZM32.5,20.489a11.032,11.032,0,0,1,1.25,5.458h4.329a15.331,15.331,0,0,0-1.8-7.565Zm1.25,5.458a10.955,10.955,0,0,1-1.25,5.424l3.782,2.107a15.259,15.259,0,0,0,1.8-7.53ZM32.507,31.36a8.05,8.05,0,0,1-3.491,3.288l1.955,3.863a12.376,12.376,0,0,0,5.307-5.024Zm-3.472,3.279a13.281,13.281,0,0,1-5.934,1.2v4.329a17.568,17.568,0,0,0,7.851-1.644Zm-5.934,1.2h-7.17v4.329H23.1ZM18.1,38V13.79H13.768V38ZM15.932,15.955H23.1V11.625h-7.17Zm7.17,22.2c3.734,0,6.931-.977,9.22-3.266L29.26,31.828c-1.221,1.221-3.15,2-6.158,2Zm9.22-3.266a12.164,12.164,0,0,0,3.3-8.943H31.293c0,2.745-.759,4.608-2.033,5.881Zm3.3-8.943a12.211,12.211,0,0,0-3.3-8.977L29.26,20.031c1.271,1.271,2.033,3.142,2.033,5.916ZM32.341,16.99c-2.287-2.347-5.49-3.356-9.239-3.356v4.329c2.993,0,4.915.792,6.139,2.048ZM23.1,13.634H18.357v4.329H23.1ZM16.192,15.8V35.991h4.329V15.8Zm2.165,22.357H23.1V33.826H18.357Z" fill="#20a354"/>
      <path id="Path_12" data-name="Path 12" d="M57.136,27.015a6.577,6.577,0,0,1,.733-3.171,5.18,5.18,0,0,1,2.006-2.114,5.672,5.672,0,0,1,2.912-.755,5.322,5.322,0,0,1,2.8.755,4.618,4.618,0,0,1,1.833,1.963v-6.73h1.51V32.925h-1.51V30.293a4.6,4.6,0,0,1-1.769,2.028,5.3,5.3,0,0,1-2.89.777,5.672,5.672,0,0,1-2.912-.755,5.329,5.329,0,0,1-2.006-2.136A6.872,6.872,0,0,1,57.136,27.015Zm10.289.021a5.185,5.185,0,0,0-.582-2.5,4.134,4.134,0,0,0-1.6-1.661,4.267,4.267,0,0,0-2.2-.582,4.479,4.479,0,0,0-2.243.561,4.029,4.029,0,0,0-1.575,1.639,5.316,5.316,0,0,0-.561,2.524,5.529,5.529,0,0,0,.561,2.545A4.178,4.178,0,0,0,60.8,31.221a4.479,4.479,0,0,0,2.243.561,4.266,4.266,0,0,0,2.2-.582,4.134,4.134,0,0,0,1.6-1.661A5.186,5.186,0,0,0,67.425,27.036Zm4.267-.021a6.739,6.739,0,0,1,.712-3.171A5.178,5.178,0,0,1,74.41,21.73a5.672,5.672,0,0,1,2.912-.755,5.231,5.231,0,0,1,2.89.777,4.5,4.5,0,0,1,1.769,1.984V21.147h1.51V32.925h-1.51v-2.61a4.777,4.777,0,0,1-1.79,2.006,5.23,5.23,0,0,1-2.89.777,5.631,5.631,0,0,1-2.891-.755A5.327,5.327,0,0,1,72.4,30.207,6.87,6.87,0,0,1,71.692,27.015Zm10.289.021a5.186,5.186,0,0,0-.582-2.5,4.134,4.134,0,0,0-1.6-1.661,4.267,4.267,0,0,0-2.2-.582,4.479,4.479,0,0,0-2.243.561,4.029,4.029,0,0,0-1.575,1.639,5.316,5.316,0,0,0-.561,2.524,5.53,5.53,0,0,0,.561,2.545,4.179,4.179,0,0,0,1.575,1.661,4.479,4.479,0,0,0,2.243.561,4.266,4.266,0,0,0,2.2-.582,4.134,4.134,0,0,0,1.6-1.661A5.187,5.187,0,0,0,81.981,27.036Zm9.142,4.422,3.969-10.311h1.6L91.964,32.925h-1.7L85.536,21.147h1.618ZM100.7,22.42v7.313a2.1,2.1,0,0,0,.409,1.488,2.021,2.021,0,0,0,1.446.41h1.38v1.294h-1.618a3.348,3.348,0,0,1-2.372-.733,3.317,3.317,0,0,1-.776-2.459V22.42H97.527V21.147h1.639V18.192H100.7v2.955h3.235V22.42ZM111.579,33.1a6.129,6.129,0,0,1-3-.733,5.572,5.572,0,0,1-2.093-2.114,6.6,6.6,0,0,1-.755-3.214,6.322,6.322,0,0,1,.777-3.193,5.331,5.331,0,0,1,2.114-2.114,6.33,6.33,0,0,1,6,0,5.16,5.16,0,0,1,2.114,2.114,6.323,6.323,0,0,1,.777,3.193,6.4,6.4,0,0,1-.777,3.192,5.439,5.439,0,0,1-2.135,2.136A6.256,6.256,0,0,1,111.579,33.1Zm0-1.316a4.592,4.592,0,0,0,2.157-.518,4.048,4.048,0,0,0,1.6-1.6,5.166,5.166,0,0,0,.626-2.632,5.187,5.187,0,0,0-.6-2.61,3.882,3.882,0,0,0-1.6-1.6,4.585,4.585,0,0,0-4.315,0,3.882,3.882,0,0,0-1.6,1.6,5.35,5.35,0,0,0-.582,2.61,5.478,5.478,0,0,0,.582,2.632,4.1,4.1,0,0,0,1.575,1.6A4.589,4.589,0,0,0,111.579,31.782Zm14.207-10.85a4.713,4.713,0,0,1,3.451,1.316,5.014,5.014,0,0,1,1.337,3.775v6.9h-1.488v-6.73a4.08,4.08,0,0,0-.971-2.934,3.4,3.4,0,0,0-2.61-1.014,3.553,3.553,0,0,0-2.718,1.078,4.468,4.468,0,0,0-1.014,3.171v6.428h-1.51V21.147h1.51v2.006a3.794,3.794,0,0,1,1.618-1.639A4.88,4.88,0,0,1,125.786,20.932Zm9.638-3.969V32.925h-1.51V16.962Zm17.44,3.969a4.511,4.511,0,0,1,3.365,1.316,5.065,5.065,0,0,1,1.316,3.775v6.9h-1.488v-6.73a4.2,4.2,0,0,0-.928-2.934,3.251,3.251,0,0,0-2.524-1.014,3.4,3.4,0,0,0-2.653,1.1,4.617,4.617,0,0,0-.992,3.193v6.385h-1.489v-6.73a4.2,4.2,0,0,0-.927-2.934A3.279,3.279,0,0,0,144,22.247a3.4,3.4,0,0,0-2.653,1.1,4.617,4.617,0,0,0-.992,3.193v6.385h-1.51V21.147h1.51v2.028a3.8,3.8,0,0,1,1.6-1.661,4.628,4.628,0,0,1,2.308-.582,4.845,4.845,0,0,1,2.675.733,4.115,4.115,0,0,1,1.683,2.157,3.944,3.944,0,0,1,1.617-2.136A4.735,4.735,0,0,1,152.864,20.932ZM164.954,33.1a5.567,5.567,0,0,1-3.322-.928,3.463,3.463,0,0,1-1.424-2.567h1.553a2.273,2.273,0,0,0,.928,1.618,3.768,3.768,0,0,0,2.243.6,2.889,2.889,0,0,0,1.92-.582,1.8,1.8,0,0,0,.712-1.445,1.347,1.347,0,0,0-.388-.992,2.63,2.63,0,0,0-.993-.6,12.787,12.787,0,0,0-1.6-.5,16.335,16.335,0,0,1-2.135-.69,3.786,3.786,0,0,1-1.4-1.014,2.824,2.824,0,0,1-.56-1.833,2.711,2.711,0,0,1,.517-1.6,3.531,3.531,0,0,1,1.467-1.165,5.16,5.16,0,0,1,2.157-.431,4.626,4.626,0,0,1,3.063.971,3.448,3.448,0,0,1,1.251,2.632h-1.51a2.243,2.243,0,0,0-.819-1.661,2.96,2.96,0,0,0-2.028-.647,2.992,2.992,0,0,0-1.855.539,1.621,1.621,0,0,0-.712,1.337,1.641,1.641,0,0,0,.41,1.143,3.214,3.214,0,0,0,1.057.69q.626.237,1.682.539a15.854,15.854,0,0,1,2.028.669,3.515,3.515,0,0,1,1.294.949,2.536,2.536,0,0,1,.561,1.661,2.943,2.943,0,0,1-.517,1.7,3.561,3.561,0,0,1-1.446,1.165A5.009,5.009,0,0,1,164.954,33.1Z" fill="#20a354"/>
      <path id="Path_13" data-name="Path 13" d="M57.869,23.844l.224.121h0Zm2.006-2.114.127.221h0Zm5.716,0,.132-.218h0Zm1.833,1.963-.23.111.485-.111Zm0-6.73v-.255H67.17v.255Zm1.51,0h.255v-.255h-.255Zm0,15.962v.255h.255v-.255Zm-1.51,0H67.17v.255h.255Zm0-2.632h.255l-.489-.1Zm-1.769,2.028.136.216,0,0Zm-5.8.022-.13.219h0Zm-2.006-2.136-.227.117v0Zm9-5.673.224-.121h0Zm-1.6-1.661-.129.22h0ZM60.8,22.851l.125.222h0Zm-1.575,1.639L59,24.37v0Zm0,5.069L59,29.676l0,.005ZM60.8,31.221l-.129.22,0,0Zm4.444-.022-.127-.221h0Zm1.6-1.661.224.121h0ZM57.39,27.015a6.323,6.323,0,0,1,.7-3.05l-.449-.242a6.831,6.831,0,0,0-.764,3.292Zm.7-3.051A4.925,4.925,0,0,1,60,21.951l-.255-.442a5.434,5.434,0,0,0-2.1,2.215ZM60,21.95a5.417,5.417,0,0,1,2.784-.72v-.51a5.927,5.927,0,0,0-3.041.79Zm2.784-.72a5.066,5.066,0,0,1,2.672.718l.263-.437a5.575,5.575,0,0,0-2.936-.792Zm2.672.718A4.364,4.364,0,0,1,67.2,23.8l.459-.222a4.873,4.873,0,0,0-1.932-2.07Zm2.22,1.745v-6.73h-.51v6.73Zm-.255-6.475h1.51v-.51h-1.51Zm1.255-.255V32.925h.51V16.962Zm.255,15.707h-1.51v.51h1.51Zm-1.255.255V30.293h-.51v2.632Zm-.489-2.734a4.348,4.348,0,0,1-1.674,1.916l.278.428A4.856,4.856,0,0,0,67.658,30.4ZM65.52,32.105a5.043,5.043,0,0,1-2.754.737v.51a5.552,5.552,0,0,0,3.027-.816Zm-2.754.737a5.417,5.417,0,0,1-2.784-.72l-.257.441a5.927,5.927,0,0,0,3.041.79Zm-2.782-.719a5.073,5.073,0,0,1-1.911-2.036l-.45.239a5.583,5.583,0,0,0,2.1,2.235Zm-1.91-2.033a6.616,6.616,0,0,1-.684-3.076h-.51a7.124,7.124,0,0,0,.74,3.309Zm9.606-3.054a5.44,5.44,0,0,0-.613-2.623l-.449.242a4.931,4.931,0,0,1,.552,2.381Zm-.613-2.623a4.389,4.389,0,0,0-1.694-1.761l-.254.442a3.877,3.877,0,0,1,1.5,1.561Zm-1.692-1.76a4.521,4.521,0,0,0-2.329-.618v.51a4.011,4.011,0,0,1,2.071.547Zm-2.329-.618a4.733,4.733,0,0,0-2.369.594l.251.444a4.224,4.224,0,0,1,2.118-.528Zm-2.369.594A4.284,4.284,0,0,0,59,24.37l.449.242a3.774,3.774,0,0,1,1.476-1.538ZM59,24.371a5.57,5.57,0,0,0-.591,2.643h.51a5.064,5.064,0,0,1,.531-2.4Zm-.591,2.643A5.783,5.783,0,0,0,59,29.676l.454-.232a5.275,5.275,0,0,1-.533-2.429ZM59,29.681a4.434,4.434,0,0,0,1.67,1.76l.258-.44a3.925,3.925,0,0,1-1.479-1.562Zm1.674,1.762a4.733,4.733,0,0,0,2.369.594v-.51A4.224,4.224,0,0,1,60.928,31Zm2.369.594a4.521,4.521,0,0,0,2.329-.618l-.258-.44a4.012,4.012,0,0,1-2.071.547Zm2.327-.616a4.388,4.388,0,0,0,1.694-1.761l-.449-.242a3.878,3.878,0,0,1-1.5,1.561Zm1.694-1.761a5.439,5.439,0,0,0,.613-2.623h-.51a4.931,4.931,0,0,1-.552,2.381ZM72.4,23.844l-.225-.12h0ZM74.41,21.73l.127.221h0Zm5.8.022-.138.214h0Zm1.769,1.984-.233.1.488-.1Zm0-2.588v-.255h-.255v.255Zm1.51,0h.255v-.255h-.255Zm0,11.778v.255h.255v-.255Zm-1.51,0h-.255v.255h.255Zm0-2.61h.255l-.486-.107Zm-1.79,2.006.138.215h0Zm-5.781.022-.13.219h0ZM72.4,30.207l-.227.117v0Zm9-5.673.224-.121h0Zm-1.6-1.661-.129.22h0Zm-4.444-.021.125.222h0Zm-1.575,1.639-.224-.121v0Zm0,5.069-.227.116,0,.005Zm1.575,1.661-.129.22,0,0ZM79.8,31.2l-.127-.221h0Zm1.6-1.661.224.121h0Zm-9.452-2.524a6.485,6.485,0,0,1,.683-3.053l-.452-.237a6.993,6.993,0,0,0-.741,3.289Zm.682-3.051a4.925,4.925,0,0,1,1.908-2.013l-.255-.442a5.434,5.434,0,0,0-2.1,2.215Zm1.909-2.013a5.417,5.417,0,0,1,2.784-.72v-.51a5.927,5.927,0,0,0-3.041.79Zm2.784-.72a4.977,4.977,0,0,1,2.753.736l.276-.429a5.483,5.483,0,0,0-3.028-.817Zm2.754.737a4.247,4.247,0,0,1,1.672,1.873l.466-.208a4.755,4.755,0,0,0-1.866-2.1Zm2.16,1.769V21.147h-.51v2.588ZM81.981,21.4h1.51v-.51h-1.51Zm1.255-.255V32.925h.51V21.147Zm.255,11.523h-1.51v.51h1.51Zm-1.255.255v-2.61h-.51v2.61Zm-.486-2.717a4.523,4.523,0,0,1-1.7,1.9l.278.428a5.032,5.032,0,0,0,1.883-2.113Zm-1.7,1.9a4.976,4.976,0,0,1-2.753.736v.51a5.484,5.484,0,0,0,3.028-.817Zm-2.753.736a5.375,5.375,0,0,1-2.762-.72l-.257.441a5.885,5.885,0,0,0,3.019.79Zm-2.76-.719a5.073,5.073,0,0,1-1.911-2.036l-.45.239a5.583,5.583,0,0,0,2.1,2.235ZM72.63,30.09a6.618,6.618,0,0,1-.683-3.076h-.51a7.125,7.125,0,0,0,.74,3.309Zm9.606-3.054a5.44,5.44,0,0,0-.613-2.623l-.449.242a4.932,4.932,0,0,1,.552,2.381Zm-.613-2.623a4.388,4.388,0,0,0-1.694-1.761l-.254.442a3.878,3.878,0,0,1,1.5,1.561Zm-1.692-1.76a4.521,4.521,0,0,0-2.329-.618v.51a4.011,4.011,0,0,1,2.071.547ZM77.6,22.035a4.734,4.734,0,0,0-2.369.594l.251.444a4.224,4.224,0,0,1,2.118-.528Zm-2.369.594a4.284,4.284,0,0,0-1.674,1.74l.449.242a3.774,3.774,0,0,1,1.476-1.538Zm-1.674,1.742a5.569,5.569,0,0,0-.591,2.643h.51a5.064,5.064,0,0,1,.531-2.4Zm-.591,2.643a5.784,5.784,0,0,0,.589,2.661l.454-.232a5.276,5.276,0,0,1-.533-2.429Zm.591,2.667a4.435,4.435,0,0,0,1.67,1.76l.258-.44a3.924,3.924,0,0,1-1.479-1.562Zm1.674,1.762a4.733,4.733,0,0,0,2.369.594v-.51A4.224,4.224,0,0,1,75.484,31Zm2.369.594a4.521,4.521,0,0,0,2.329-.618l-.258-.44a4.012,4.012,0,0,1-2.071.547Zm2.327-.616a4.386,4.386,0,0,0,1.694-1.761l-.449-.242a3.879,3.879,0,0,1-1.5,1.561Zm1.694-1.761a5.439,5.439,0,0,0,.613-2.623h-.51a4.932,4.932,0,0,1-.552,2.381Zm9.5,1.8-.238.092.238.618.238-.618Zm3.969-10.311v-.255h-.175l-.063.163Zm1.6,0,.237.095.14-.35h-.377ZM91.964,32.925v.255h.172l.064-.16Zm-1.7,0-.237.095.064.16h.173ZM85.536,21.147v-.255h-.377l.14.35Zm1.618,0,.238-.092-.063-.163h-.175Zm4.207,10.4L95.33,21.239l-.476-.183L90.885,31.367ZM95.092,21.4h1.6v-.51h-1.6Zm1.359-.35L91.727,32.83l.473.19,4.724-11.778ZM91.964,32.67h-1.7v.51h1.7Zm-1.467.16L85.773,21.052l-.473.19L90.023,33.02ZM85.536,21.4h1.618v-.51H85.536Zm1.38-.163L90.885,31.55l.476-.183L87.392,21.056ZM100.7,22.42v-.255h-.255v.255Zm.409,8.8.181-.18h0Zm2.826.41h.255v-.255h-.255Zm0,1.294v.255h.255v-.255Zm-3.99-.733-.178.183,0,0Zm-.776-9.772h.255v-.255h-.255Zm-1.639,0h-.255v.255h.255Zm0-1.273v-.255h-.255v.255Zm1.639,0V21.4h.255v-.255Zm0-2.955v-.255h-.255v.255Zm1.532,0h.255v-.255H100.7Zm0,2.955h-.255V21.4h.255Zm3.235,0h.255v-.255h-.255Zm0,1.273v.255h.255V22.42Zm-3.49,0v7.313h.51V22.42Zm0,7.313a2.331,2.331,0,0,0,.484,1.669l.361-.361a1.868,1.868,0,0,1-.335-1.308Zm.484,1.669a2.258,2.258,0,0,0,1.626.485v-.51a1.785,1.785,0,0,1-1.265-.335Zm1.626.485h1.38v-.51h-1.38Zm1.125-.255v1.294h.51V31.631Zm.255,1.039h-1.618v.51h1.618Zm-1.618,0a3.1,3.1,0,0,1-2.2-.664l-.35.371a3.6,3.6,0,0,0,2.548.8Zm-2.195-.661a3.076,3.076,0,0,1-.7-2.276h-.51a3.562,3.562,0,0,0,.854,2.642Zm-.7-2.276V22.42h-.51v7.313Zm-.255-7.567H97.527v.51h1.639Zm-1.384.255V21.147h-.51V22.42ZM97.527,21.4h1.639v-.51H97.527Zm1.894-.255V18.192h-.51v2.955Zm-.255-2.7H100.7v-.51H99.166Zm1.277-.255v2.955h.51V18.192Zm.255,3.21h3.235v-.51H100.7Zm2.98-.255V22.42h.51V21.147Zm.255,1.018H100.7v.51h3.235Zm4.648,10.2-.127.221,0,0Zm-2.093-2.114-.224.122,0,0Zm.022-6.407.221.127h0Zm2.114-2.114.122.224,0,0Zm6,0-.125.222,0,0Zm2.114,2.114-.223.122,0,0Zm0,6.385.223.125h0ZM114.6,32.364l.121.224h0Zm-.863-1.1.118.226,0,0Zm1.6-1.6-.22-.128h0Zm.022-5.242-.223.125v0Zm-1.6-1.6-.122.224,0,0Zm-4.315,0,.118.226,0,0Zm-1.6,1.6-.222-.125h0Zm0,5.242-.224.121,0,.005Zm1.575,1.6-.124.223.006,0Zm2.157,1.579a5.88,5.88,0,0,1-2.876-.7l-.245.447a6.385,6.385,0,0,0,3.121.765Zm-2.872-.7a5.321,5.321,0,0,1-2-2.019l-.443.253a5.824,5.824,0,0,0,2.187,2.209Zm-2-2.015a6.336,6.336,0,0,1-.724-3.092h-.51a6.847,6.847,0,0,0,.786,3.336Zm-.724-3.092a6.073,6.073,0,0,1,.743-3.066l-.443-.253a6.582,6.582,0,0,0-.81,3.319Zm.744-3.067a5.081,5.081,0,0,1,2.014-2.015l-.245-.447a5.591,5.591,0,0,0-2.213,2.212Zm2.017-2.017a5.738,5.738,0,0,1,2.873-.722v-.51a6.25,6.25,0,0,0-3.124.788Zm2.873-.722a5.738,5.738,0,0,1,2.873.722l.251-.444a6.247,6.247,0,0,0-3.124-.788Zm2.877.724a4.912,4.912,0,0,1,2.012,2.012l.447-.245a5.414,5.414,0,0,0-2.216-2.216Zm2.014,2.016a6.073,6.073,0,0,1,.743,3.066h.51a6.582,6.582,0,0,0-.81-3.319Zm.743,3.066a6.15,6.15,0,0,1-.744,3.067l.445.25a6.656,6.656,0,0,0,.809-3.317Zm-.744,3.067a5.189,5.189,0,0,1-2.037,2.038l.248.446a5.705,5.705,0,0,0,2.234-2.234Zm-2.034,2.036a6,6,0,0,1-2.9.7v.51a6.51,6.51,0,0,0,3.141-.764Zm-2.9-.1a4.847,4.847,0,0,0,2.275-.547l-.236-.452a4.339,4.339,0,0,1-2.039.489Zm2.279-.549a4.318,4.318,0,0,0,1.7-1.694l-.443-.253a3.8,3.8,0,0,1-1.5,1.5Zm1.695-1.692a5.423,5.423,0,0,0,.66-2.76h-.51a4.919,4.919,0,0,1-.591,2.5Zm.66-2.76a5.443,5.443,0,0,0-.638-2.737l-.443.253a4.932,4.932,0,0,1,.571,2.483Zm-.637-2.735a4.129,4.129,0,0,0-1.7-1.7l-.236.452a3.622,3.622,0,0,1,1.491,1.495Zm-1.7-1.7a4.7,4.7,0,0,0-2.278-.57v.51a4.19,4.19,0,0,1,2.035.508Zm-2.278-.57a4.7,4.7,0,0,0-2.279.57l.243.448a4.191,4.191,0,0,1,2.036-.508Zm-2.276.568a4.129,4.129,0,0,0-1.7,1.7l.445.249a3.622,3.622,0,0,1,1.491-1.495Zm-1.7,1.7a5.6,5.6,0,0,0-.614,2.733h.51a5.089,5.089,0,0,1,.551-2.487Zm-.614,2.733a5.728,5.728,0,0,0,.613,2.753l.449-.242a5.217,5.217,0,0,1-.552-2.51Zm.616,2.758a4.348,4.348,0,0,0,1.672,1.693l.248-.446a3.836,3.836,0,0,1-1.477-1.5Zm1.678,1.7a4.847,4.847,0,0,0,2.275.547v-.51a4.336,4.336,0,0,1-2.039-.489Zm19.933-9.243-.179.182h0Zm1.337,10.678v.255h.255v-.255Zm-1.488,0h-.255v.255h.255Zm-.971-9.664-.186.174,0,0Zm-6.342,9.664v.255h.255v-.255Zm-1.51,0h-.255v.255h.255Zm0-11.778v-.255h-.255v.255Zm1.51,0h.255v-.255h-.255Zm0,2.006h-.255l.482.118Zm1.618-1.639.12.225,0,0Zm2.4-.327a4.459,4.459,0,0,1,3.272,1.243l.358-.364a4.967,4.967,0,0,0-3.63-1.389Zm3.274,1.244a4.765,4.765,0,0,1,1.259,3.592h.51a5.268,5.268,0,0,0-1.415-3.958Zm1.259,3.592v6.9h.51v-6.9Zm.255,6.648h-1.488v.51h1.488Zm-1.233.255v-6.73h-.51v6.73Zm0-6.73a4.326,4.326,0,0,0-1.042-3.11l-.368.353a3.83,3.83,0,0,1,.9,2.757Zm-1.04-3.108a3.654,3.654,0,0,0-2.8-1.095v.51a3.148,3.148,0,0,1,2.424.933Zm-2.8-1.095a3.807,3.807,0,0,0-2.9,1.159l.372.349a3.3,3.3,0,0,1,2.532-1Zm-2.9,1.159a4.721,4.721,0,0,0-1.083,3.346h.51a4.219,4.219,0,0,1,.945-3ZM121.518,26.5v6.428h.51V26.5Zm.255,6.173h-1.51v.51h1.51Zm-1.255.255V21.147h-.51V32.925ZM120.263,21.4h1.51v-.51h-1.51Zm1.255-.255v2.006h.51V21.147ZM122,23.271a3.534,3.534,0,0,1,1.511-1.532l-.239-.451a4.045,4.045,0,0,0-1.725,1.747Zm1.514-1.534a4.625,4.625,0,0,1,2.272-.551v-.51a5.134,5.134,0,0,0-2.518.614Zm11.91-4.775h.255v-.255h-.255Zm0,15.962v.255h.255v-.255Zm-1.51,0h-.255v.255h.255Zm0-15.962v-.255h-.255v.255Zm1.255,0V32.925h.51V16.962Zm.255,15.707h-1.51v.51h1.51Zm-1.255.255V16.962h-.51V32.925Zm-.255-15.707h1.51v-.51h-1.51Zm22.315,5.03-.182.179,0,0Zm1.316,10.678v.255h.255v-.255Zm-1.488,0H155.8v.255h.255Zm-.928-9.664-.188.172h0Zm-5.177.086-.189-.171h0Zm-.992,9.577v.255h.255v-.255Zm-1.489,0h-.255v.255h.255Zm-.927-9.664-.188.172h0Zm-5.2.086-.189-.171h0Zm-.992,9.577v.255h.255v-.255Zm-1.51,0h-.255v.255h.255Zm0-11.778v-.255h-.255v.255Zm1.51,0h.255v-.255h-.255Zm0,2.028H140.1l.482.116Zm1.6-1.661.122.224,0,0Zm4.983.151-.138.215h0Zm1.683,2.157-.24.087.248.683.233-.688Zm1.617-2.136.138.215h0Zm2.632-.5a4.256,4.256,0,0,1,3.183,1.24l.364-.358a4.766,4.766,0,0,0-3.547-1.392Zm3.186,1.243a4.812,4.812,0,0,1,1.24,3.593h.51a5.315,5.315,0,0,0-1.392-3.957Zm1.24,3.593v6.9h.51v-6.9Zm.255,6.648h-1.488v.51h1.488Zm-1.233.255v-6.73h-.51v6.73Zm0-6.73a4.449,4.449,0,0,0-.995-3.106l-.376.344a3.95,3.95,0,0,1,.861,2.762Zm-.995-3.106a3.5,3.5,0,0,0-2.712-1.1v.51a3,3,0,0,1,2.336.931Zm-2.712-1.1a3.652,3.652,0,0,0-2.842,1.184l.378.342A3.144,3.144,0,0,1,152.6,22.5Zm-2.842,1.184a4.861,4.861,0,0,0-1.058,3.363h.51a4.369,4.369,0,0,1,.926-3.022Zm-1.058,3.363v6.385h.51V26.54Zm.255,6.13h-1.489v.51h1.489Zm-1.234.255v-6.73h-.51v6.73Zm0-6.73a4.448,4.448,0,0,0-.994-3.106l-.376.344a3.949,3.949,0,0,1,.86,2.762Zm-.994-3.106a3.531,3.531,0,0,0-2.734-1.1v.51a3.027,3.027,0,0,1,2.358.931ZM144,21.992a3.652,3.652,0,0,0-2.842,1.184l.379.342A3.143,3.143,0,0,1,144,22.5Zm-2.842,1.184A4.866,4.866,0,0,0,140.1,26.54h.51a4.364,4.364,0,0,1,.927-3.022ZM140.1,26.54v6.385h.51V26.54Zm.255,6.13h-1.51v.51h1.51Zm-1.255.255V21.147h-.51V32.925ZM138.843,21.4h1.51v-.51h-1.51Zm1.255-.255v2.028h.51V21.147Zm.482,2.143a3.542,3.542,0,0,1,1.491-1.553l-.243-.448a4.049,4.049,0,0,0-1.7,1.769Zm1.494-1.555a4.373,4.373,0,0,1,2.183-.55v-.51a4.88,4.88,0,0,0-2.433.615Zm2.183-.55a4.59,4.59,0,0,1,2.537.693l.276-.429a5.1,5.1,0,0,0-2.813-.774Zm2.539.694a3.863,3.863,0,0,1,1.579,2.028l.479-.174a4.371,4.371,0,0,0-1.786-2.286Zm2.06,2.023a3.693,3.693,0,0,1,1.514-2l-.275-.429a4.2,4.2,0,0,0-1.722,2.268Zm1.515-2a4.48,4.48,0,0,1,2.493-.714v-.51a4.986,4.986,0,0,0-2.77.8ZM161.632,32.17l-.153.2,0,0ZM160.208,29.6v-.255h-.28l.026.279Zm1.553,0,.254-.028-.025-.227h-.229Zm.928,1.618-.155.2.006,0Zm4.163.022-.161-.2,0,0Zm.324-2.438.18-.18h0Zm-.993-.6-.1.236.011,0Zm-1.6-.5-.065.247h0ZM161.049,26l-.2.161.006.007Zm-.043-3.43-.208-.147h0Zm1.467-1.165-.105-.232h0Zm5.22.539-.163.2,0,0Zm1.251,2.632v.255h.269l-.014-.268Zm-1.51,0-.254.016.015.239h.239Zm-.819-1.661-.169.191.006,0Zm-3.883-.108.154.2h0Zm-.3,2.481-.189.171.009.009Zm1.057.69-.1.236.008,0Zm1.682.539-.07.245h0Zm2.028.669-.1.234h0Zm1.294.949.194-.167h0Zm.561,1.661h.255v-.005Zm-.517,1.7.208.147,0,0Zm-1.446,1.165.108.231h0Zm-2.135.177a5.317,5.317,0,0,1-3.174-.88l-.3.415a5.821,5.821,0,0,0,3.471.975Zm-3.17-.877a3.209,3.209,0,0,1-1.322-2.386l-.508.047a3.72,3.72,0,0,0,1.525,2.748Zm-1.576-2.107h1.553v-.51h-1.553Zm1.3-.228a2.528,2.528,0,0,0,1.026,1.793l.31-.405a2.019,2.019,0,0,1-.829-1.443Zm1.032,1.8a4.02,4.02,0,0,0,2.392.652v-.51a3.515,3.515,0,0,1-2.094-.556Zm2.392.652a3.138,3.138,0,0,0,2.084-.642l-.328-.39a2.641,2.641,0,0,1-1.756.522Zm2.082-.64a2.051,2.051,0,0,0,.8-1.643h-.51a1.545,1.545,0,0,1-.618,1.248Zm.8-1.643a1.6,1.6,0,0,0-.463-1.173l-.361.361a1.09,1.09,0,0,1,.314.812Zm-.463-1.173a2.888,2.888,0,0,0-1.087-.664l-.171.48a2.37,2.37,0,0,1,.9.544Zm-1.076-.66a13.066,13.066,0,0,0-1.63-.507l-.126.494a12.574,12.574,0,0,1,1.563.485Zm-1.628-.507a16.08,16.08,0,0,1-2.1-.679l-.2.47a16.557,16.557,0,0,0,2.169.7Zm-2.1-.679a3.518,3.518,0,0,1-1.309-.946l-.385.335a4.033,4.033,0,0,0,1.5,1.081Zm-1.3-.94a2.57,2.57,0,0,1-.5-1.673h-.51a3.067,3.067,0,0,0,.618,1.994Zm-.5-1.673a2.457,2.457,0,0,1,.471-1.449l-.417-.294a2.967,2.967,0,0,0-.564,1.743Zm.471-1.449a3.274,3.274,0,0,1,1.364-1.08l-.211-.464a3.782,3.782,0,0,0-1.57,1.25Zm1.364-1.08a4.9,4.9,0,0,1,2.051-.409v-.51a5.407,5.407,0,0,0-2.262.454Zm2.051-.409a4.374,4.374,0,0,1,2.9.912l.327-.392a4.881,4.881,0,0,0-3.227-1.03Zm2.9.913a3.2,3.2,0,0,1,1.158,2.447l.509-.026a3.705,3.705,0,0,0-1.345-2.816Zm1.412,2.179h-1.51v.51h1.51Zm-1.255.239a2.5,2.5,0,0,0-.912-1.841l-.325.393a1.987,1.987,0,0,1,.728,1.481Zm-.906-1.836a3.208,3.208,0,0,0-2.2-.711v.51a2.709,2.709,0,0,1,1.859.583Zm-2.2-.711a3.243,3.243,0,0,0-2.009.591l.308.406a2.738,2.738,0,0,1,1.7-.487Zm-2.009.591a1.875,1.875,0,0,0-.813,1.541h.51a1.368,1.368,0,0,1,.611-1.134Zm-.813,1.541a1.9,1.9,0,0,0,.476,1.314l.378-.342a1.387,1.387,0,0,1-.344-.972Zm.485,1.324a3.458,3.458,0,0,0,1.139.746l.195-.471a2.963,2.963,0,0,1-.974-.635Zm1.147.748c.426.162.995.344,1.7.546l.141-.49c-.7-.2-1.255-.378-1.663-.532Zm1.706.547a15.651,15.651,0,0,1,1.994.657l.2-.469a16.164,16.164,0,0,0-2.062-.68Zm1.994.657a3.261,3.261,0,0,1,1.2.881l.387-.333a3.777,3.777,0,0,0-1.387-1.017Zm1.2.881a2.285,2.285,0,0,1,.5,1.5l.51-.011a2.793,2.793,0,0,0-.622-1.822Zm.5,1.494a2.687,2.687,0,0,1-.473,1.56l.421.288a3.2,3.2,0,0,0,.562-1.848Zm-.471,1.557a3.306,3.306,0,0,1-1.344,1.081l.215.463a3.81,3.81,0,0,0,1.546-1.249Zm-1.344,1.081a4.756,4.756,0,0,1-2.028.408v.51A5.267,5.267,0,0,0,167.2,32.9Z" fill="#20a354"/>
    </g>
  </g>
</svg>
