<svg id="Group_41" data-name="Group 41" xmlns="http://www.w3.org/2000/svg" width="104.171" height="26.549" viewBox="0 0 104.171 26.549">
  <text id="Messages" transform="translate(42.171 17.095)" font-size="14" font-family="GTWalsheimPro-Medium, GT Walsheim Pro" font-weight="500"><tspan x="0" y="0">Messages</tspan></text>
  <path id="comment_3_" data-name="comment (3)" d="M21.76,3.051a13.273,13.273,0,1,0-8.469,23.5h7.723a5.537,5.537,0,0,0,5.53-5.53V12.439A13.322,13.322,0,0,0,21.76,3.051ZM8.847,7.743h4.424a1.106,1.106,0,0,1,0,2.212H8.847a1.106,1.106,0,1,1,0-2.212ZM17.7,18.8H8.847a1.106,1.106,0,1,1,0-2.212H17.7a1.106,1.106,0,1,1,0,2.212Zm0-4.424H8.847a1.106,1.106,0,1,1,0-2.212H17.7a1.106,1.106,0,1,1,0,2.212Z" transform="translate(-0.02 0.003)"/>
</svg>
